<svg width="396" height="96" viewBox="0 0 396 96" fill="none" xmlns="http://www.w3.org/2000/svg">
<path fill-rule="evenodd" clip-rule="evenodd" d="M24 24H24.0294L47.9411 47.9117L48 47.8528V48H72C58.7452 48 48 58.7452 48 72C34.7452 72 24 61.2548 24 48V24ZM72 48V24H96V72C82.7452 72 72 61.2548 72 48Z" fill="white"/>
<path fill-rule="evenodd" clip-rule="evenodd" d="M120 24H132V36H144V48H132V60H144V72H132C125.373 72 120 66.6274 120 60V24ZM228 24H240V60H252V72H240C233.373 72 228 66.6274 228 60V24ZM180 36H168C161.373 36 156 41.3726 156 48V72H168V48H180V36ZM276 36H300V48V72H288H264V60V48C264 41.3726 269.373 36 276 36ZM276 48H288V60H276V48ZM384 36H372C365.373 36 360 41.3726 360 48V60C360 66.6274 365.373 72 372 72H384V84H360C360 90.6274 365.373 96 372 96H384C390.627 96 396 90.6274 396 84V48C396 41.3726 390.627 36 384 36ZM384 48H372V60H384V48ZM324 36H336C342.627 36 348 41.3726 348 48V72H336V48H324V60V72H312V60V36H324ZM216 48H192V60H216V48Z" fill="white"/>
</svg>
