<svg width="415" height="96" viewBox="0 0 415 96" fill="none" xmlns="http://www.w3.org/2000/svg">
<rect width="120" height="96" rx="24" fill="#FF0000"/>
<path fill-rule="evenodd" clip-rule="evenodd" d="M24 24H24.0294L47.9411 47.9117L48 47.8528V48H72C58.7452 48 48 58.7452 48 72C34.7452 72 24 61.2548 24 48V24ZM72 48V24H96V72C82.7452 72 72 61.2548 72 48Z" fill="white"/>
<path fill-rule="evenodd" clip-rule="evenodd" d="M139 24H151V36H163V48H151V60H163V72H151C144.373 72 139 66.6274 139 60V24ZM247 24H259V60H271V72H259C252.373 72 247 66.6274 247 60V24ZM199 36H187C180.373 36 175 41.3726 175 48V72H187V48H199V36ZM295 36H319V48V72H307H283V60V48C283 41.3726 288.373 36 295 36ZM295 48H307V60H295V48ZM403 36H391C384.373 36 379 41.3726 379 48V60C379 66.6274 384.373 72 391 72H403V84H379C379 90.6274 384.373 96 391 96H403C409.627 96 415 90.6274 415 84V48C415 41.3726 409.627 36 403 36ZM403 48H391V60H403V48ZM343 36H355C361.627 36 367 41.3726 367 48V72H355V48H343V60V72H331V60V36H343ZM235 48H211V60H235V48Z" fill="white"/>
</svg>
